{"title":"THE SMURFS 2 2013.(NEW SOURCE TS XViD).R6.CROPPED-FANTA","uid":8938649,"size":1469684067,"categoryP":"video","categoryS":"movies","magnet":"?xt=urn:btih:0dba1e1741aeb5175d862da32454e53bf0a8dbd1&amp;dn=THE+SMURFS+2+2013.%28NEW+SOURCE+TS+XViD%29.R6.CROPPED-FANTA&amp;tr=udp%3A%2F%2Ftracker.openbittorrent.com%3A80&amp;tr=udp%3A%2F%2Fopen.demonii.com%3A1337&amp;tr=udp%3A%2F%2Ftracker.coppersurfer.tk%3A6969&amp;tr=udp%3A%2F%2Fexodus.desync.com%3A6969","seeders":2,"leechers":0,"uploader":"xxxlavalxxx","files":-1,"time":1379623396,"description":" &lt;a href=&quot;http://www.imdb.com/title/tt2017020/&quot; rel=&quot;nofollow&quot; target=&quot;_NEW&quot;&gt;http://www.imdb.com/title/tt2017020/&lt;/a&gt;\n\n\n\nThe Smurfs team up with their human friends to rescue Smurfette, who has been kidnapped by Gargamel since she knows a secret spell that can turn the evil sorcerer's newest creation - creatures called the Naughties - into real Smurfs. \n\n\n\nDirector:\n Raja Gosnell \n\nWriters:\n J. David Stem (screenplay), David N. Weiss (screenplay)\n\nStars:\n Hank Azaria, Neil Patrick Harris, Jayma Mays \n\nGenres:\n  Animation |  Comedy |  Family |  Fantasy \n\nCountry:\n USA \n\nLanguage:\n English | French \n\n\nSource: Chinese files, murder's audio\n\n\nFormat                                   : AVI\nFormat/Info                              : Audio Video Interleave\nFile size                                : 1.37 GiB\nDuration                                 : 1h 40mn\nOverall bit rate                         : 1 946 Kbps\nWriting application                      : VirtualDubMod 1.5.10.2 (build 2542/release)\nWriting library                          : VirtualDubMod build 2542/release\n\nVideo\nID                                       : 0\nFormat                                   : MPEG-4 Visual\nFormat profile                           : Advanced Simple@L5\nFormat settings, BVOP                    : 1\nFormat settings, QPel                    : No\nFormat settings, GMC                     : No warppoints\nFormat settings, Matrix                  : Default (H.263)\nMuxing mode                              : Packed bitstream\nCodec ID                                 : XVID\nCodec ID/Hint                            : XviD\nDuration                                 : 1h 40mn\nBit rate                                 : 1 746 Kbps\nWidth                                    : 680 pixels\nHeight                                   : 364 pixels\nDisplay aspect ratio                     : 1.85:1\nFrame rate                               : 23.976 fps\nColor space                              : YUV\nChroma subsampling                       : 4:2:0\nBit depth                                : 8 bits\nScan type                                : Progressive\nCompression mode                         : Lossy\nBits/(Pixel*Frame)                       : 0.294\nStream size                              : 1.23 GiB (90%)\nWriting library                          : XviD 64\n\nAudio\nID                                       : 1\nFormat                                   : AC-3\nFormat/Info                              : Audio Coding 3\nMode extension                           : CM (complete main)\nFormat settings, Endianness              : Big\nCodec ID                                 : 2000\nDuration                                 : 1h 40mn\nBit rate mode                            : Constant\nBit rate                                 : 192 Kbps\nChannel(s)                               : 2 channels\nChannel positions                        : Front: L R\nSampling rate                            : 48.0 KHz\nBit depth                                : 16 bits\nCompression mode                         : Lossy\nStream size                              : 138 MiB (10%)\nAlignment                                : Split accross interleaves\nInterleave, duration                     : 64 ms (1.53 video frames)\nInterleave, preload duration             : 500 ms\n\n\n\n &lt;a href=&quot;\nhttp://bayimg.com/EAPmdaAel&quot; rel=&quot;nofollow&quot; target=&quot;_NEW&quot;&gt;\nhttp://bayimg.com/EAPmdaAel&lt;/a&gt; &lt;a href=&quot;\nhttp://bayimg.com/eaPmEAAEL&quot; rel=&quot;nofollow&quot; target=&quot;_NEW&quot;&gt;\nhttp://bayimg.com/eaPmEAAEL&lt;/a&gt;","torrent":{"xt":"urn:btih:0dba1e1741aeb5175d862da32454e53bf0a8dbd1","amp;dn":"THE+SMURFS+2+2013.%28NEW+SOURCE+TS+XViD%29.R6.CROPPED-FANTA","amp;tr":["udp%3A%2F%2Ftracker.openbittorrent.com%3A80","udp%3A%2F%2Fopen.demonii.com%3A1337","udp%3A%2F%2Ftracker.coppersurfer.tk%3A6969","udp%3A%2F%2Fexodus.desync.com%3A6969"],"infoHash":"0dba1e1741aeb5175d862da32454e53bf0a8dbd1","infoHashBuffer":{"type":"Buffer","data":[13,186,30,23,65,174,181,23,93,134,45,163,36,84,229,59,240,168,219,209]},"announce":[],"urlList":[]}}